<svg xmlns="http://www.w3.org/2000/svg" viewBox="0 0 60 60">
    <path
        fill="currentColor"
        d="M19.6 21.3h-.3l3.5.8a43.7 43.7 0 0 0 21-.6h.2c6.8-2 11-5.4 11-8.5 0-4.4-8.6-9-23-9S9 8.6 9 13c0 3 4 6.4 10.6 8.3zm8.9-4.4c-1.7-.5-2.6-1.4-2.8-2.7v-.7l-.8-.1-.3-.1.1-.5s.3-.3.7-.4l.5-.1.1-.4a4 4 0 0 1 1.2-1.6c.4-.3.6-.5.7-.8a10 10 0 0 0 3.9.3c4.2 0 5.3 1.2 5.7 2l.2.5.4.1c.4.1.6.3.7.4l.1.5h-.3l-.7.2-.1.7c-.2 1.3-1.1 2.2-2.8 2.7l-.7.2.2 2c0 .6.5 1.1 1.2 1.4l.8.3h-.8a48.7 48.7 0 0 1-8.6 0l.6-.3c.8-.3 1.2-.8 1.3-1.5l.2-1.9-.7-.2zM32 6c14 0 21 4.5 21 7 0 2-4.3 5.6-12.4 7.2l-4.1-1.6v-.1c2-.9 2.8-2.2 3.1-3.4.5-.2.9-.5 1-.9.3-.4.4-1 .3-1.4l-.2-.6c-.2-.7-.8-1.2-1.6-1.5-1.5-2.6-4.9-2.9-7.3-2.9h-.6c-1 .1-2 0-2.8-.3l-.6-.3c-.5-.3-1-.2-1.3 0l-.6.3V8.8l-.5.5a6 6 0 0 0-1 1.4c-.8.3-1.4.8-1.6 1.5l-.2.6c-.1.5 0 1 .2 1.4.2.4.6.7 1 1a5.2 5.2 0 0 0 3.3 3.3v.1l-4.2 1.5C15.2 18.5 11 15 11 13c0-2.5 7-7 21-7z"
    />
    <path
        fill="currentColor"
        d="M54 29.6v-.2c3.2-2.2 5-5 5-8V13C59 5.6 47.4 0 32 0S5 5.6 5 13v2.3C1.7 17.5 0 20 0 23v8.4c0 3.3 2.2 6.3 6 8.7v6.3C6 54 17.9 60 33 60s27-6 27-13.6V38c0-3.2-2-6-6-8.4zm4 8.4c0 6.4-11.7 12-25 12h-2.2a44.4 44.4 0 0 1-2.4-.2h-.5c-8.2-1-15.2-4-18.2-7.7l-.2-.1-.1-.2c1.4.6 3 1.1 4.6 1.6 4.4 2.9 11.3 4.6 19 4.6 13.6 0 23-5.3 23-10 0-1.4-.8-2.8-2.4-4v-.2l.1-.4.1-.3v-.3l.1-.4V32c2.1 1.4 4.1 3.4 4.1 6zM37.1 51.8h.1a50.7 50.7 0 0 0 3.8-.4v6a49 49 0 0 1-4 .4v-6h.1zM43 51h.2l1.6-.4h.2l1-.3v6l-3 .7v-6zm5-1.4h.2l.2-.1 1.2-.5.3-.1h.1v6l-2 .7v-6zm4-1.7.5-.2.3-.2 1.1-.7h.1v5.8L52 54v-6zm-40-1.1 2 1.1v6l-2-1.3v-5.8zm-6-15 1.2.7.3.2.5.2V38H6.6l-.6-.4v-5.8zm4.4 2.2 1.2.5h.2l.2.1v6l-2-.8v-6l.4.2zm4.8 1.6 1.6.4h.2v6a48.6 48.6 0 0 1-3-.7v-6l1 .2.2.1zm5.9 1 1.7.2h.2v6a52 52 0 0 1-2-.2h-1l-1-.2v-6a46.6 46.6 0 0 0 2 .3zm5.9.4h2v6h-4v-6h2zM7 18.3l.8.9.1.1.8.7.1.2.2.1V26a6.6 6.6 0 0 1-2-4.5v-3.1zm4 3.5 1.2.7.3.2.5.2v6l-2-1.3v-5.8zm4 2 .4.2 1.2.5h.2l.2.1v6l-2-.8v-6zm4 1.5 1 .2.2.1 1.6.4h.2v6l-3-.7v-6zm5 1a46.6 46.6 0 0 0 3.8.5h.2v6c-1.4 0-2.7-.2-4-.4v-6zm8 .7h2v6h-4v-6h2zm4.2-.2a50.7 50.7 0 0 0 3.8-.4v6l-1.1.1-.6.1-2.3.2v-6h.2zm7.6-1.2h.2l1-.3v6h-.4a41.7 41.7 0 0 1-2.3.6l-.3.1v-6h.2l1.6-.4zm3.6-1.1 1.2-.5.3-.1h.1v6l-2 .7v-6h.2l.2-.1zm4.4-2 1.1-.7h.1v5.8L51 29v-6l.5-.2.3-.2zM24.5 45h.5a56.2 56.2 0 0 0 3.4 0H31l.6-.1h.7l.6-.1.8-.1h.5l.7-.2h.6l.7-.2.5-.1.7-.1.6-.2h.6l.5-.2.6-.2.6-.1.6-.2.5-.2.5-.1.5-.2.6-.2.5-.2.5-.2.5-.2.5-.2.4-.2a24 24 0 0 0 5.7-3.9 13.6 13.6 0 0 0 .6-.6l.2-.3a9.2 9.2 0 0 0 .6-.8c1 .8 1.4 1.5 1.4 2.2 0 2.7-7.4 8-21 8-4.1 0-7.5-.5-10.2-1.2l1.7.1zM42 40.6v-6h.2l1-.5c.3 0 .6-.2.8-.3v6l-2 .8zm-4.2-4.8 1.2-.3c.4 0 .7-.2 1-.3v6l-3 .8v-6l.8-.2zm8.2 3v-5.7a36 36 0 0 0 2-.7v5.2L46 39zm-14-2 1-.2 1.4-.1.6-.1v6h-.3l-.9.1-.7.1a48.6 48.6 0 0 1-2 .2H31v-6h1zm20-5.4c0 .8-.2 1.6-.5 2.3v.2l-1.3 1.8-.2.2v-4.3l2-1v.8zM16 49l2 .7v6l-2-.8v-6zm4 1.4 3 .7v6l-3-.7v-6zm5 1 .5.1a41.7 41.7 0 0 0 3 .4h.5v6c-1.4 0-2.7-.2-4-.4v-6zm32-33v3.1c0 1.6-.7 3.1-2 4.5v-5.6l.2-.1.1-.2.8-.7.1-.1.7-.9h.1zM32 2c14 0 25 4.8 25 11 0 6.4-11.7 12-25 12S7 19.4 7 13C7 6.8 18 2 32 2zM5 17.7v4.7l.1.4v.3l.2.4v.3l.2.3.1.3a8.7 8.7 0 0 0 1.9 2.8 12.5 12.5 0 0 0 1.2 1.2l.3.2.3.3.3.2.4.3.4.3.4.2.3.2.5.3.4.2.6.4h.2l1 .5.3.2.6.2.4.2.6.2.4.2.6.2.5.1.6.2.4.2.6.1.6.2a36.8 36.8 0 0 0 6.7 1.2h.6l.7.1h.6l.8.1h.6L27 35C13.7 35 2 29.4 2 23c0-2.2 1.4-4 3-5.3zM2 31.4v-3.1l.8.9.1.1.8.7.1.2.2.1V36a6.6 6.6 0 0 1-2-4.5zm6 15v-3.1c.6.7 1.2 1.4 2 2V51a6.6 6.6 0 0 1-2-4.5zM31 58v-6h.1a51.7 51.7 0 0 0 3.8 0h.1v6a52.8 52.8 0 0 1-4 0zm27-14.7v3.1c0 1.6-.7 3.1-2 4.5v-5.6l.2-.1.1-.2.8-.7.1-.1.7-.9h.1z"
    />
</svg>
