<svg xmlns="http://www.w3.org/2000/svg" viewBox="0 0 511 511">
    <path
        fill="currentColor"
        d="M471.5 100H367V82.6c0-34.5-28-62.6-62.6-62.6h-97.8C172.1 20 144 48 144 82.6V100H39.5A39.5 39.5 0 0 0 0 139.5v312A39.5 39.5 0 0 0 39.5 491h432a39.5 39.5 0 0 0 39.5-39.5v-312a39.5 39.5 0 0 0-39.5-39.5zM159 82.6A47.7 47.7 0 0 1 206.6 35h97.8A47.7 47.7 0 0 1 352 82.6V100h-17V82.6A30.6 30.6 0 0 0 304.4 52h-97.8A30.6 30.6 0 0 0 176 82.6V100h-17V82.6zM320 100H191V82.6c0-8.6 7-15.6 15.6-15.6h97.8c8.6 0 15.6 7 15.6 15.6V100zm151.5 376h-432C26 476 15 465 15 451.5v-105a39.3 39.3 0 0 0 24.5 8.5H80v32.5a23.5 23.5 0 0 0 47 0v-80a23.5 23.5 0 0 0-47 0V340H39.5C26 340 15 329 15 315.5v-176C15 126 26 115 39.5 115h432c13.5 0 24.5 11 24.5 24.5v176c0 13.5-11 24.5-24.5 24.5h-24a7.5 7.5 0 0 0 0 15h24c9.3 0 17.8-3.2 24.5-8.6v105.1c0 13.5-11 24.5-24.5 24.5zM95 369.4a23.4 23.4 0 0 0 17 0v18.1a8.5 8.5 0 0 1-17 0v-18.1zm17-21.9a8.5 8.5 0 0 1-17 0v-40a8.5 8.5 0 0 1 17 0v40z"
    />
    <path
        fill="currentColor"
        d="M399.5 284c-13 0-23.5 10.5-23.5 23.5V340H151.5a7.5 7.5 0 0 0 0 15H376v32.5a23.5 23.5 0 0 0 47 0v-80c0-13-10.5-23.5-23.5-23.5zm-8.5 23.5a8.5 8.5 0 0 1 17 0v40a8.5 8.5 0 0 1-17 0v-40zm8.5 88.5a8.5 8.5 0 0 1-8.5-8.5v-18.1a23.4 23.4 0 0 0 17 0v18.1c0 4.7-3.8 8.5-8.5 8.5z"
    />
    <path
        fill="currentColor"
        d="M207.5 323h96a7.5 7.5 0 0 0 0-15h-96a7.5 7.5 0 0 0 0 15z"
    />
</svg>
