<svg xmlns="http://www.w3.org/2000/svg" viewBox="0 0 490 490">
    <path
        d="M338.6 35.6a30.6 30.6 0 0 0-43.2 0L289 42a30.8 30.8 0 0 0 0 43.3l.6.5c-9.6 6.1-24 15.5-39.9 26.2a390 390 0 0 0-40.6-41.9c2.1-9.8-.6-20.5-8.2-28.1l-6.3-6.3a30.6 30.6 0 0 0-43.2 0L9 178.5a30.8 30.8 0 0 0 0 43.3l6.3 6.4c9.3 9.2 23 11.2 34.3 6 5.9 8.4 21 29.1 40 53.2-10.5 10.8-27.3 31-28 51.7a35.1 35.1 0 0 0 10.3 26.5l87.6 87.8 2 1.6c.8.6 12 8.3 30 8.3 14.9 0 34.4-5.3 56.8-24a73.3 73.3 0 0 0 43.2 16.4c5.5.1 11.2-.9 16.6-3.3a40.2 40.2 0 0 0 21.6-25.2 56.2 56.2 0 0 0 35-33.8 47.5 47.5 0 0 0 35.8-33.7c14-2 30.3-9.7 36.1-30.5 4.4-15.7 0-29-6.8-39.4a97.2 97.2 0 0 0 26.1-53c7-.6 13.7-3.4 19-8.7l6.3-6.3a30.8 30.8 0 0 0 0-43.3L338.6 35.7zm86.3 185.9c3.4 19.3-8 36.6-16.8 46.5l-82.3-77.3-10.3 7.2c-20.8 14.8-47.6 1.9-47.8 1.8l-8.8-4.5-7.7 6.2a120.5 120.5 0 0 1-65 22.9c-8.3 0-11-1.7-10.9-1.5-.7-2.7 2.4-13.2 13.4-26.5 12.5-15 80-60.8 123-88.3l113.2 113.5zM119 323.3l-22.2 24.1-3.3-3.4a4.6 4.6 0 0 1-1.5-3.9c.2-7.7 8.5-19.5 16.8-28.7l10.2 11.9zm45 91.5-10.5-10.6 21.7-23.6 11.3 10-22.5 24.2zm-32.2-32.3-13.4-13.4 21.2-23 8.9 9.2 4.4 4.3-21.1 23zm57.4 50 20.8-22.3 12.8 10.1c-14.7 10.6-26 12.7-33.6 12.3zM407 321c-2 7.3-8.6 8.7-13.3 8.8l-85.5-81.3-21 22.2 83.8 79.8c-2 8.7-8 12-13.5 13.3l-84.3-80.2-21.1 22.2 83 78.8c-3.1 7.3-9.1 11.1-13.9 13l-83-79-21.1 22.3 82.6 78.6c-1 2.2-2.3 4.1-4.1 5-5.6 2.5-17.2-1.6-22.4-4.7-.5-.4-56.8-39.8-103-86-43-43.3-91.1-110.7-97.6-119.8L191.1 95c8 7.3 21.8 20.5 33.3 34.3-25.9 18.1-50.4 36.6-59.3 47.4-9 10.8-28.5 38.3-17 60.1 7.3 13.8 23.3 19.7 47.7 17.5a150.3 150.3 0 0 0 67-23.8 81 81 0 0 0 59.4-1.3l81.3 76.4c3 4.1 5.2 9.3 3.5 15.2z"
        fill="currentColor"
    />
</svg>
