<svg xmlns="http://www.w3.org/2000/svg" viewBox="0 0 25.9 25.9">
    <path d="M9 12h10v2H9z"
          fill="currentColor"
    />
    <path
        d="M13 22H3a1 1 0 0 1-1-1V4h20v8.4a3 3 0 0 1 2-.2V3a3 3 0 0 0-3-3H3a3 3 0 0 0-3 3v18a3 3 0 0 0 3 3h9.4l.6-2z"
        fill="currentColor"
    />
    <path
        d="M9 8h10v2H9zM9 18h7.1l2-2H9zM5 12h2v2H5zM5 8h2v2H5zM5 16h2v2H5zM25.6 16 24 14.3a1 1 0 0 0-1.5 0l-1.3 1.2 3 3 1.3-1.2c.4-.4.4-1 0-1.5zM15.4 21.5l-.2.2-1 3.6a.4.4 0 0 0 .5.6l3.6-1 .2-.2 5-5-3.2-3.1-5 4.9zm.4 3.1-.4-.4.6-2 1.5.3.3 1.5-2 .6z"
        fill="currentColor"

    />
</svg>
