<svg xmlns="http://www.w3.org/2000/svg" viewBox="0 0 512 512" xml:space="preserve">
    <path fill="#6B7280" d="m350 259-94 253L79 412V212z"/>
    <path fill="#9CA3AF" d="M256 112 79 212l177 100v200l177-100V212z"/>
    <path fill="#D1D5DB" d="m256 312 177-100-177-100L79 212z"/>
    <path fill="#374151" d="m314 225 47 27v201l-33 18V271l-47-27M232 244l-48 27v200l-33-18V252l48-27"/>

    <path fill="#6B7280" d="m317 94-61 163-114-64V64z"/>
    <path fill="#9CA3AF" d="M370 64v129l-40 23-33 18-41 23V129L142 64l40-22 33-19 41-23z"/>
    <path fill="#D1D5DB" d="m370 64-41 24-33 18-40 23-114-65 40-22 33-19 41-23z"/>
    <path fill="#374151" d="M330 88v128l-33 18V107l-1-1-114-64 33-19 114 65z"/>
</svg>
