<svg xmlns="http://www.w3.org/2000/svg" viewBox="0 0 105.2 122.9">
    <path
        d="M11.2 37.2h83.5a8.4 8.4 0 0 1 2 .1 6 6 0 0 1 2.8 1.6 5.4 5.4 0 0 1 1.7 3.3 7.7 7.7 0 0 1 0 1.5L94 117.3v.4a7 7 0 0 1-.2 1 5.9 5.9 0 0 1-5.5 4h-71a6.2 6.2 0 0 1-1.2-.1 6.2 6.2 0 0 1-1.2-.5 6.2 6.2 0 0 1-3-4.9l-7-73.5a7.7 7.7 0 0 1-.1-1.6 5.4 5.4 0 0 1 1.6-3.3 6 6 0 0 1 3-1.6 9 9 0 0 1 1.8-.1ZM5.7 8.8H37V6a2.4 2.4 0 0 1 0-.3 6 6 0 0 1 1.8-4A6 6 0 0 1 43 0h19.7a6 6 0 0 1 5.7 6v2.8h32.3a4.7 4.7 0 0 1 4.4 4.4v10.4a2.6 2.6 0 0 1-2.6 2.6H2.6A2.6 2.6 0 0 1 0 23.6v-10a1.6 1.6 0 0 1 0-.4A4.7 4.7 0 0 1 3.9 9a10.4 10.4 0 0 1 1.8-.1Zm42 52.7a4.8 4.8 0 0 1 9.5 0v37a4.8 4.8 0 0 1-9.5 0v-37Zm23.8-.2a4.6 4.6 0 0 1 5-4 4.5 4.5 0 0 1 4.5 4.4l-2 37a4.6 4.6 0 0 1-5 4 4.5 4.5 0 0 1-4.5-4.4l2-37Zm-46.5.4a4.5 4.5 0 0 1 4.5-4.5 4.6 4.6 0 0 1 5 4.1l2 37a4.5 4.5 0 0 1-4.5 4.5 4.6 4.6 0 0 1-5-4.1l-2-37Z"
        style="fill-rule:evenodd"
        fill="currentColor"
    />
</svg>
