<svg xmlns="http://www.w3.org/2000/svg" viewBox="0 0 32 32">
    <path class="st0"
          fill="none"
          stroke="currentColor"
          stroke-width="2"
          stroke-linecap="round"
          d="M3 5v16c0 1.1.9 2 2 2h22a2 2 0 0 0 2-2V5a2 2 0 0 0-2-2H5a2 2 0 0 0-2 2zM9 29h14M13 23c0 2.1-.7 4.6-1.8 6M20.8 29a10.6 10.6 0 0 1-1.8-6"
    />
    <circle class="st0" cx="15" cy="12" r="4"
            fill="none"
            stroke="currentColor"
            stroke-width="2"
            stroke-linecap="round"
    />
    <path class="st0"
          fill="currentColor"
          stroke="currentColor"
          stroke-width="2"
          stroke-linecap="round"
          d="m19.2 13.4 2.1 2.1c.8.8.8 2.1 0 2.8h0c-.8.8-2.1.8-2.8 0l-2.1-2.1"
    />
</svg>
