<?xml version="1.0" standalone="no"?>
<!DOCTYPE svg PUBLIC "-//W3C//DTD SVG 20010904//EN"
 "http://www.w3.org/TR/2001/REC-SVG-20010904/DTD/svg10.dtd">
<svg version="1.0" xmlns="http://www.w3.org/2000/svg"
 width="700.000000pt" height="700.000000pt" viewBox="0 0 700.000000 700.000000"
 preserveAspectRatio="xMidYMid meet">
<metadata>
Created by potrace 1.14, written by Peter Selinger 2001-2017
</metadata>
<g transform="translate(0.000000,700.000000) scale(0.100000,-0.100000)"
fill="#000000" stroke="none">
<path d="M2707 6553 c-148 -85 -214 -129 -205 -134 7 -5 360 -203 783 -441
l770 -433 3 -873 c2 -692 5 -872 15 -867 30 14 -27 -22 -125 -79 l-108 -62
320 -184 320 -184 0 -1369 c0 -1091 3 -1368 13 -1364 6 3 109 59 227 124 l215
120 3 1371 2 1371 -27 19 c-16 10 -160 94 -321 186 -161 93 -290 171 -287 175
4 3 52 31 108 62 l102 56 3 875 c2 847 1 876 -17 881 -10 2 -363 201 -783 441
-421 240 -772 436 -779 435 -8 0 -112 -57 -232 -126z"/>
<path d="M1940 5242 l0 -879 363 -203 c199 -112 374 -211 389 -220 l27 -16
-212 -119 c-117 -66 -266 -150 -331 -187 l-119 -68 -81 45 c-45 24 -263 147
-486 274 l-405 229 -3 -1361 c-1 -749 1 -1364 6 -1369 4 -4 221 -128 482 -276
261 -147 493 -280 515 -294 22 -14 153 -88 290 -163 138 -76 447 -250 688
-386 l437 -247 0 1366 0 1367 -490 275 c-269 151 -490 277 -490 280 0 3 96 59
213 125 116 66 265 149 329 186 l117 66 123 -69 c68 -38 140 -78 161 -89 l37
-19 0 872 0 873 -771 440 c-424 242 -775 442 -780 443 -5 2 -9 -373 -9 -876z"/>
</g>
</svg>
