<svg width="1690" height="433" fill="none" xmlns="http://www.w3.org/2000/svg">
    <path d="M296 219.04 216.5 433 66.81 348.43V179.29L296 219.04Z" fill="#6B7280"/>
    <path d="M216.5 94.72 66.81 179.29l149.69 84.57V433l149.69-84.57V179.29L216.5 94.72Z" fill="#9CA3AF"/>
    <path d="m216.5 263.86 149.69-84.57L216.5 94.72 66.81 179.29l149.69 84.57Z" fill="#D1D5DB"/>
    <path d="m265.55 190.28 39.75 22.84V383.1l-27.9 15.23V229.19l-39.76-22.84m-41.44 0-40.6 22.84v169.14l-27.9-15.23V213.12l40.6-22.84"
          fill="#374151"/>
    <path d="M268.09 79.5 216.5 217.35l-96.41-54.13V54.12l148 25.38Z" fill="#6B7280"/>
    <path d="M312.91 54.13v109.1l-33.83 19.44-27.9 15.23-34.68 19.45V109.1l-96.41-54.97 33.83-18.61 27.9-16.07L216.5 0l96.41 54.13Z"
          fill="#9CA3AF"/>
    <path d="m312.91 54.13-34.67 20.3-27.91 15.21-33.83 19.46-96.41-54.97 33.83-18.61 27.9-16.07L216.5 0l96.41 54.13Z"
          fill="#D1D5DB"/>
    <path d="M279.08 74.42v108.25l-27.9 15.23V90.49l-.85-.85-96.41-54.12 27.9-16.07 96.42 54.97h.84Z" fill="#374151"/>
    <path d="M586.66 277.44c-3.48 0-6.18-.96-8.1-2.88-1.8-1.92-2.7-4.68-2.7-8.28v-107.1c0-3.72.9-6.54 2.7-8.46a9.69 9.69 0 0 1 7.38-3.06c2.76 0 4.8.54 6.12 1.62 1.44.96 3.12 2.64 5.04 5.04l68.94 89.46h-4.68v-85.14c0-3.48.9-6.18 2.7-8.1 1.92-1.92 4.62-2.88 8.1-2.88 3.48 0 6.12.96 7.92 2.88 1.8 1.92 2.7 4.62 2.7 8.1v108c0 3.36-.84 6-2.52 7.92-1.68 1.92-3.96 2.88-6.84 2.88-2.76 0-4.98-.54-6.66-1.62a26.5 26.5 0 0 1-5.22-5.22l-68.76-89.46h4.5v85.14c0 3.6-.9 6.36-2.7 8.28-1.8 1.92-4.44 2.88-7.92 2.88Zm125.1 0c-2.87 0-5.21-.66-7.01-1.98a8.1 8.1 0 0 1-3.06-5.22c-.36-2.28.06-4.8 1.26-7.56l47.52-105.3c1.56-3.48 3.42-5.94 5.58-7.38a13.39 13.39 0 0 1 7.74-2.34c2.76 0 5.22.78 7.38 2.34 2.28 1.44 4.2 3.9 5.76 7.38l47.7 105.3c1.32 2.76 1.8 5.28 1.44 7.56a8.22 8.22 0 0 1-3.06 5.4c-1.68 1.2-3.9 1.8-6.66 1.8-3.36 0-6-.78-7.92-2.34-1.8-1.68-3.42-4.2-4.86-7.56l-11.7-27.18 9.72 6.3h-75.96l9.72-6.3-11.52 27.18c-1.56 3.48-3.18 6-4.86 7.56-1.68 1.56-4.08 2.34-7.2 2.34Zm51.67-103.32-25.2 59.94-4.68-5.76h60.12l-4.5 5.76-25.38-59.94h-.36ZM856.69 276c-3.96 0-7.02-1.02-9.18-3.06-2.04-2.16-3.06-5.22-3.06-9.18V161.34c0-3.96 1.02-6.96 3.06-9 2.16-2.16 5.22-3.24 9.18-3.24h34.92c21.24 0 37.62 5.46 49.14 16.38 11.64 10.92 17.46 26.58 17.46 46.98 0 10.2-1.5 19.26-4.5 27.18a50.81 50.81 0 0 1-12.96 19.8c-5.64 5.4-12.6 9.54-20.88 12.42-8.16 2.76-17.58 4.14-28.26 4.14H856.7Zm10.8-19.08h22.68c7.44 0 13.86-.9 19.26-2.7 5.52-1.92 10.08-4.68 13.68-8.28a34.25 34.25 0 0 0 8.28-13.86c1.8-5.64 2.7-12.18 2.7-19.62 0-14.88-3.66-25.98-10.98-33.3-7.32-7.32-18.3-10.98-32.94-10.98H867.5v88.74ZM984.15 276c-3 0-5.46-.6-7.38-1.8a9.5 9.5 0 0 1-3.78-4.86c-.6-2.16-.6-4.5 0-7.02.72-2.64 2.1-5.34 4.14-8.1l68.76-93.24v7.38h-63.54c-3.36 0-5.94-.84-7.74-2.52-1.68-1.68-2.52-4.08-2.52-7.2s.84-5.46 2.52-7.02c1.8-1.68 4.38-2.52 7.74-2.52h74.52c3 0 5.4.6 7.2 1.8a8.4 8.4 0 0 1 3.78 4.86c.72 2.04.72 4.38 0 7.02a21.99 21.99 0 0 1-3.96 8.1l-68.76 93.06v-7.2h66.24c3.36 0 5.88.84 7.56 2.52 1.8 1.56 2.7 3.9 2.7 7.02 0 3.12-.9 5.52-2.7 7.2-1.68 1.68-4.2 2.52-7.56 2.52h-77.22Zm103.26 1.44c-2.88 0-5.22-.66-7.02-1.98a8.1 8.1 0 0 1-3.06-5.22c-.36-2.28.06-4.8 1.26-7.56l47.52-105.3c1.56-3.48 3.42-5.94 5.58-7.38a13.39 13.39 0 0 1 7.74-2.34c2.76 0 5.22.78 7.38 2.34 2.28 1.44 4.2 3.9 5.76 7.38l47.7 105.3c1.32 2.76 1.8 5.28 1.44 7.56a8.22 8.22 0 0 1-3.06 5.4c-1.68 1.2-3.9 1.8-6.66 1.8-3.36 0-6-.78-7.92-2.34-1.8-1.68-3.42-4.2-4.86-7.56l-11.7-27.18 9.72 6.3h-75.96l9.72-6.3-11.52 27.18c-1.56 3.48-3.18 6-4.86 7.56-1.68 1.56-4.08 2.34-7.2 2.34Zm51.66-103.32-25.2 59.94-4.68-5.76h60.12l-4.5 5.76-25.38-59.94h-.36Zm9.54-36.9a7.17 7.17 0 0 1-4.86 2.52 8.27 8.27 0 0 1-4.68-1.44 8.12 8.12 0 0 1-2.7-3.96c-.36-1.56 0-3.18 1.08-4.86l14.04-20.7c1.32-2.04 2.88-3.24 4.68-3.6a8.87 8.87 0 0 1 5.58.36c1.8.6 3.24 1.62 4.32 3.06a7.5 7.5 0 0 1 1.98 4.68c.12 1.68-.6 3.36-2.16 5.04l-17.28 18.9Zm113.82 140.58c-5.28 0-10.56-.42-15.84-1.26a82.33 82.33 0 0 1-14.94-3.42 61.44 61.44 0 0 1-12.6-6.12 11.62 11.62 0 0 1-5.4-11.16 10.96 10.96 0 0 1 2.34-5.22 8.2 8.2 0 0 1 4.86-2.88c1.92-.36 4.02.18 6.3 1.62a61.5 61.5 0 0 0 16.74 6.84 77.7 77.7 0 0 0 18.54 2.16c9.48 0 16.38-1.56 20.7-4.68 4.32-3.24 6.48-7.38 6.48-12.42 0-4.2-1.56-7.5-4.68-9.9-3-2.4-8.22-4.38-15.66-5.94l-19.8-4.14c-11.4-2.4-19.92-6.42-25.56-12.06-5.52-5.76-8.28-13.32-8.28-22.68 0-5.88 1.2-11.22 3.6-16.02 2.4-4.8 5.76-8.94 10.08-12.42a46.97 46.97 0 0 1 15.66-7.92 67.08 67.08 0 0 1 20.16-2.88c7.2 0 14.04.9 20.52 2.7a59.4 59.4 0 0 1 17.46 7.92 9.21 9.21 0 0 1 3.78 4.86c.72 1.92.9 3.84.54 5.76a8.98 8.98 0 0 1-2.52 4.68 8.26 8.26 0 0 1-5.04 2.34c-1.92.24-4.14-.36-6.66-1.8a51.24 51.24 0 0 0-13.5-5.4 63.95 63.95 0 0 0-14.76-1.62c-5.52 0-10.26.78-14.22 2.34-3.96 1.56-7.02 3.78-9.18 6.66a16.2 16.2 0 0 0-3.06 9.9c0 4.32 1.44 7.8 4.32 10.44 2.88 2.52 7.8 4.5 14.76 5.94l19.62 4.14c11.88 2.52 20.7 6.48 26.46 11.88 5.88 5.4 8.82 12.6 8.82 21.6 0 5.76-1.2 10.98-3.6 15.66a33.35 33.35 0 0 1-10.08 12.06c-4.32 3.36-9.54 5.94-15.66 7.74-6.12 1.8-13.02 2.7-20.7 2.7Zm126.7 0c-12.24 0-22.98-2.7-32.22-8.1a55.37 55.37 0 0 1-21.24-22.68c-5.04-9.84-7.56-21.36-7.56-34.56 0-9.96 1.44-18.9 4.32-26.82 2.88-8.04 6.96-14.88 12.24-20.52a53.48 53.48 0 0 1 19.26-13.14c7.56-3.12 15.96-4.68 25.2-4.68 12.36 0 23.1 2.7 32.22 8.1 9.12 5.28 16.2 12.78 21.24 22.5 5.04 9.72 7.56 21.18 7.56 34.38 0 9.96-1.44 18.96-4.32 27a58.87 58.87 0 0 1-12.42 20.7 53.35 53.35 0 0 1-19.26 13.32c-7.44 3-15.78 4.5-25.02 4.5Zm0-19.8c7.8 0 14.4-1.8 19.8-5.4 5.52-3.6 9.72-8.82 12.6-15.66 3-6.84 4.5-15 4.5-24.48 0-14.4-3.24-25.56-9.72-33.48-6.36-7.92-15.42-11.88-27.18-11.88-7.68 0-14.28 1.8-19.8 5.4-5.52 3.48-9.78 8.64-12.78 15.48-2.88 6.72-4.32 14.88-4.32 24.48 0 14.28 3.24 25.44 9.72 33.48 6.48 8.04 15.54 12.06 27.18 12.06Zm96.68 18c-3.96 0-7.02-1.02-9.18-3.06-2.04-2.16-3.06-5.22-3.06-9.18V161.34c0-3.96 1.02-6.96 3.06-9 2.16-2.16 5.22-3.24 9.18-3.24h43.2c8.88 0 16.44 1.32 22.68 3.96 6.24 2.64 10.98 6.42 14.22 11.34 3.36 4.92 5.04 10.8 5.04 17.64 0 7.68-2.22 14.16-6.66 19.44-4.44 5.28-10.5 8.82-18.18 10.62v-2.7c8.88 1.32 15.78 4.68 20.7 10.08s7.38 12.42 7.38 21.06c0 11.28-3.84 20.04-11.52 26.28-7.56 6.12-18.12 9.18-31.68 9.18h-45.18Zm9.9-17.46h32.4c8.16 0 14.16-1.56 18-4.68 3.84-3.24 5.76-8.04 5.76-14.4 0-6.48-1.92-11.28-5.76-14.4-3.84-3.12-9.84-4.68-18-4.68h-32.4v38.16Zm0-55.62h29.34c7.92 0 13.8-1.5 17.64-4.5 3.96-3.12 5.94-7.68 5.94-13.68s-1.98-10.5-5.94-13.5c-3.84-3.12-9.72-4.68-17.64-4.68h-29.34v36.36Zm141.27 74.52c-3.72 0-6.6-1.02-8.64-3.06-1.92-2.16-2.88-5.16-2.88-9v-54.72l4.86 13.86-43.38-61.02a10.55 10.55 0 0 1-2.16-6.84 9.57 9.57 0 0 1 3.06-6.3c1.8-1.8 4.32-2.7 7.56-2.7 2.4 0 4.56.6 6.48 1.8a19.34 19.34 0 0 1 5.76 5.58l32.22 45.72h-5.04l32.4-45.72c1.92-2.64 3.78-4.5 5.58-5.58 1.8-1.2 4.02-1.8 6.66-1.8 3.12 0 5.52.84 7.2 2.52a7.52 7.52 0 0 1 2.7 5.94c.12 2.4-.72 4.92-2.52 7.56l-43.02 60.84 4.68-13.86v54.72c0 8.04-3.84 12.06-11.52 12.06Z"
          fill="#EF4444"/>
</svg>